<svg height="290" preserveAspectRatio="xMidYMid" viewBox="0 0 256 290" width="256" xmlns="http://www.w3.org/2000/svg"><path d="m128 .04830189 128 72.40452831v144.8573588l-128 72.404528-128-72.404528v-144.8573588z" fill="#fff"/><path d="m233.153208 212.286792-100.902642 57.141133v-44.437736l62.889057-34.632453zm6.907169-6.230943v-119.4022641l-36.902641 21.3011321v76.8zm-217.5999996 6.230943 100.9026416 57.092831v-44.437736l-62.8890567-34.584151zm-6.9071699-6.230943v-119.4022641l36.9026416 21.3011321v76.8zm4.298868-127.130566 103.5109435-58.5418868v42.9886793l-66.3184907 36.4679245-.5313208.289811zm215.8611325 0-103.462642-58.5418868v42.9886793l66.270189 36.5162264.53132.2898111z" fill="#8ed6fb"/><path d="m123.363019 214.846792-62.0196228-34.149434v-67.574339l62.0196228 35.791698zm8.887547 0 62.019623-34.101132v-67.622641l-62.019623 35.791698zm-66.7532075-109.548679 62.3094335-34.2460375 62.261133 34.2460375-62.261133 35.936604z" fill="#1c78c0"/></svg>